# File created by Blade
# Date/Time:  Tue Apr 07 20:57:09 2015
# Frame Rate: 120.000 fps
#------------------------------------------------------
:FULLY-SPECIFIED
:DEGREES
393
root -27.463393 33.852308 9.072209 54.759036 -84.625993 -48.599086
Spine -10.807646 -8.079804 4.974764
Head 24.923254 -2.679781 0.039298
LeftShoulder -16.252235 17.701813 43.812876
LeftArm 114.383398 -63.892466 -71.530051
LeftForeArm 23.369528 -0.000000 19.445412
LeftHand 9.388946 -0.000000 25.119300
LeftHandThumb1 -26.253704 0.000000 33.147579
RightShoulder -17.111542 35.647300 -60.169080
RightArm 55.308538 21.914405 33.239028
RightForeArm -22.427220 -0.000000 10.805847
RightHand 14.878003 0.000000 -32.741785
RightHandThumb1 -24.326973 -0.000000 -32.862282
LeftUpLeg -2.726863 0.266593 2.508802
LeftLeg 3.974437 -0.000000 -0.000000
LeftFoot -1.031354 -2.086931 -18.650576
LeftToeBase -16.945890 -0.000000 0.000000
RightUpLeg -2.890668 0.923767 7.243724
RightLeg 2.626414 -0.000000 -0.000000
RightFoot 4.700175 -11.986176 -10.125233
RightToeBase -29.946743 -0.000000 0.000000
394
root -27.518013 33.858031 9.071870 52.888818 -84.550541 -46.697143
Spine -11.011809 -8.218060 4.914581
Head 25.028716 -2.695206 -0.009673
LeftShoulder -16.243004 17.754502 43.785871
LeftArm 114.270002 -63.856457 -71.502987
LeftForeArm 23.391036 -0.000000 19.500484
LeftHand 9.234399 -0.000000 25.008143
LeftHandThumb1 -26.253704 0.000000 33.147579
RightShoulder -17.125114 35.595324 -60.138597
RightArm 55.326877 21.883042 33.164825
RightForeArm -22.313538 -0.000000 10.693916
RightHand 14.918485 -0.000000 -32.429959
RightHandThumb1 -24.326973 -0.000000 -32.862282
LeftUpLeg -2.528621 0.187934 2.461149
LeftLeg 3.623682 -0.000000 -0.000000
LeftFoot -0.697245 -2.103351 -18.519183
LeftToeBase -17.539068 -0.000000 0.000000
RightUpLeg -2.806646 0.850003 7.201407
RightLeg 2.559496 -0.000000 -0.000000
RightFoot 5.155550 -12.102068 -10.304537
RightToeBase -30.748984 -0.000000 0.000000
395
root -27.577164 33.860701 9.071812 50.943443 -84.498100 -44.767457
Spine -11.169155 -8.326861 4.807155
Head 25.138731 -2.752286 -0.049043
LeftShoulder -16.205276 17.712196 43.798189
LeftArm 114.022964 -63.800781 -71.389181
LeftForeArm 23.212016 0.000000 19.611796
LeftHand 9.283314 -0.000000 25.046736
LeftHandThumb1 -26.253704 0.000000 33.147579
RightShoulder -17.144397 35.539628 -60.091929
RightArm 55.358468 21.874992 33.112746
RightForeArm -22.280056 -0.000000 10.595416
RightHand 14.817922 0.000000 -32.266383
RightHandThumb1 -24.326973 -0.000000 -32.862282
LeftUpLeg -2.244665 0.077280 2.392190
LeftLeg 3.252540 -0.000000 -0.000000
LeftFoot -0.523048 -2.046428 -18.615739
LeftToeBase -17.337584 -0.000000 0.000000
RightUpLeg -2.656898 0.749577 7.123443
RightLeg 2.474840 -0.000000 -0.000000
RightFoot 5.672389 -12.222382 -10.591434
RightToeBase -31.615574 -0.000000 0.000000
396
root -27.634628 33.861096 9.070770 49.123756 -84.444136 -42.994973
Spine -11.282136 -8.422674 4.702437
Head 25.235085 -2.811764 -0.106465
LeftShoulder -16.191719 17.762906 43.750873
LeftArm 114.079762 -63.752740 -71.540606
LeftForeArm 23.249164 -0.000000 19.730600
LeftHand 9.155999 -0.000000 24.842339
LeftHandThumb1 -26.253704 0.000000 33.147579
RightShoulder -17.226879 35.615392 -60.123618
RightArm 55.342923 21.769214 33.110830
RightForeArm -22.280911 -0.000000 10.505155
RightHand 14.686931 -0.000000 -32.164993
RightHandThumb1 -24.326973 -0.000000 -32.862282
LeftUpLeg -1.921651 0.017255 2.321435
LeftLeg 2.847187 -0.000000 -0.000000
LeftFoot -0.307721 -2.011367 -18.634489
LeftToeBase -17.347000 -0.000000 0.000000
RightUpLeg -2.467970 0.713936 7.042466
RightLeg 2.418656 -0.000000 -0.000000
RightFoot 6.163255 -12.183855 -11.076685
RightToeBase -32.420992 -0.000000 0.000000
397
root -27.695353 33.858421 9.071569 47.454966 -84.421656 -41.380850
Spine -11.391428 -8.450804 4.574793
Head 25.331577 -2.889417 -0.169196
LeftShoulder -16.168799 17.795348 43.713503
LeftArm 114.038633 -63.720732 -71.600032
LeftForeArm 23.231843 0.000000 19.882789
LeftHand 9.048824 -0.000000 24.809176
LeftHandThumb1 -26.253704 0.000000 33.147579
RightShoulder -17.289351 35.572391 -60.105750
RightArm 55.396458 21.780563 33.131315
RightForeArm -22.309354 -0.000000 10.413819
RightHand 14.768806 -0.000000 -32.041331
RightHandThumb1 -24.326973 -0.000000 -32.862282
LeftUpLeg -1.554658 0.002053 2.232217
LeftLeg 2.382779 -0.000000 -0.000000
LeftFoot -0.073300 -2.005797 -18.687668
LeftToeBase -17.387341 -0.000000 0.000000
RightUpLeg -2.242257 0.616959 6.928480
RightLeg 2.282680 -0.000000 -0.000000
RightFoot 6.395679 -12.110819 -11.254258
RightToeBase -32.816067 -0.000000 0.000000
398
root -27.755583 33.852011 9.070394 45.937778 -84.384199 -39.925775
Spine -11.488127 -8.463938 4.463511
Head 25.413933 -2.978233 -0.247879
LeftShoulder -16.169945 17.838622 43.663241
LeftArm 114.048616 -63.670024 -71.668399
LeftForeArm 23.239128 0.000000 19.957137
LeftHand 9.027297 0.000000 24.795914
LeftHandThumb1 -26.253704 0.000000 33.147579
RightShoulder -17.373619 35.513466 -60.110355
RightArm 55.454614 21.800651 33.205296
RightForeArm -22.233409 -0.000000 10.375411
RightHand 14.371628 -0.000000 -31.477348
RightHandThumb1 -24.326973 -0.000000 -32.862282
LeftUpLeg -1.187359 0.007792 2.166704
LeftLeg 1.956873 -0.000000 -0.000000
LeftFoot 0.069538 -2.051905 -18.733674
LeftToeBase -17.172943 -0.000000 0.000000
RightUpLeg -1.996718 0.433797 6.824596
RightLeg 2.086803 -0.000000 -0.000000
RightFoot 6.504273 -11.956717 -11.280832
RightToeBase -33.145597 -0.000000 0.000000
399
root -27.816149 33.842809 9.068608 44.625366 -84.353391 -38.657744
Spine -11.604565 -8.440255 4.349886
Head 25.496379 -3.091308 -0.295570
LeftShoulder -16.194667 17.901251 43.628985
LeftArm 114.178386 -63.570794 -71.857495
LeftForeArm 23.254491 -0.000000 20.014542
LeftHand 8.943892 -0.000000 25.018158
LeftHandThumb1 -26.253704 0.000000 33.147579
RightShoulder -17.442123 35.455755 -60.084896
RightArm 55.492949 21.859550 33.267612
RightForeArm -22.177257 -0.000000 10.375486
RightHand 14.137924 -0.000000 -30.761774
RightHandThumb1 -24.326973 -0.000000 -32.862282
LeftUpLeg -0.783897 -0.071405 2.106011
LeftLeg 1.422216 -0.000000 -0.000000
LeftFoot 0.227243 -1.986011 -18.847092
LeftToeBase -17.003967 -0.000000 0.000000
RightUpLeg -1.760958 0.194142 6.727303
RightLeg 1.880873 -0.000000 -0.000000
RightFoot 6.673392 -11.735229 -11.550245
RightToeBase -33.443945 -0.000000 0.000000
400
root -27.877549 33.830233 9.065051 43.592766 -84.319351 -37.667277
Spine -11.738284 -8.413911 4.274299
Head 25.584934 -3.128412 -0.356569
LeftShoulder -16.196888 18.005366 43.541905
LeftArm 114.208865 -63.575175 -71.874296
LeftForeArm 23.191907 -0.000000 20.022940
LeftHand 8.984495 -0.000000 25.203019
LeftHandThumb1 -26.253704 0.000000 33.147579
RightShoulder -17.448716 35.360170 -60.000763
RightArm 55.585146 21.980425 33.281860
RightForeArm -22.049167 -0.000000 10.319985
RightHand 14.099188 -0.000000 -30.474107
RightHandThumb1 -24.326973 -0.000000 -32.862282
LeftUpLeg -0.391510 -0.127928 2.059422
LeftLeg 0.916780 -0.000000 -0.000000
LeftFoot 0.299395 -1.894787 -18.918642
LeftToeBase -16.633956 -0.000000 0.000000
RightUpLeg -1.509531 -0.055962 6.646990
RightLeg 1.649677 -0.000000 -0.000000
RightFoot 6.631897 -11.527742 -11.560000
RightToeBase -33.531178 -0.000000 0.000000
401
root -27.935121 33.814785 9.060812 42.755575 -84.282200 -36.825672
Spine -11.914633 -8.343187 4.214242
Head 25.663715 -3.211151 -0.410513
LeftShoulder -16.207374 18.121349 43.454379
LeftArm 114.449788 -63.542808 -72.114508
LeftForeArm 23.203775 -0.000000 20.041442
LeftHand 8.899778 -0.000000 25.026206
LeftHandThumb1 -26.253704 0.000000 33.147579
RightShoulder -17.590146 35.450435 -60.076318
RightArm 55.565514 21.902366 33.382908
RightForeArm -21.898504 -0.000000 10.355392
RightHand 13.817643 0.000000 -28.030792
RightHandThumb1 -24.326973 -0.000000 -32.862282
LeftUpLeg -0.034237 -0.254860 2.007262
LeftLeg 0.372286 -0.000000 -0.000000
LeftFoot 0.328734 -1.660113 -18.905174
LeftToeBase -16.405342 -0.000000 0.000000
RightUpLeg -1.315446 -0.318833 6.574011
RightLeg 1.434123 -0.000000 -0.000000
RightFoot 6.444647 -11.343089 -11.276616
RightToeBase -33.513206 -0.000000 0.000000
402
root -27.991176 33.796023 9.056099 42.088778 -84.251459 -36.118507
Spine -12.130196 -8.250016 4.157154
Head 25.732376 -3.320282 -0.443893
LeftShoulder -16.230672 18.196074 43.407864
LeftArm 114.447400 -63.505000 -72.100221
LeftForeArm 23.153771 -0.000000 19.987319
LeftHand 8.928222 -0.000000 25.176144
LeftHandThumb1 -26.253704 0.000000 33.147579
RightShoulder -17.641536 35.434472 -60.060506
RightArm 55.580070 22.010384 33.474245
RightForeArm -21.605963 -0.000000 10.388662
RightHand 14.221253 -0.000000 -27.014487
RightHandThumb1 -24.326973 -0.000000 -32.862282
LeftUpLeg 0.284960 -0.385238 1.950266
LeftLeg -0.168677 -0.000000 0.000000
LeftFoot 0.320304 -1.373107 -18.874725
LeftToeBase -16.134760 -0.000000 0.000000
RightUpLeg -1.151509 -0.503384 6.507248
RightLeg 1.226239 -0.000000 -0.000000
RightFoot 6.021742 -11.184042 -10.663557
RightToeBase -33.054171 -0.000000 0.000000
403
root -28.041824 33.774671 9.050687 41.397462 -84.234029 -35.312817
Spine -12.421518 -8.153669 4.096068
Head 25.800283 -3.420760 -0.492138
LeftShoulder -16.250515 18.146338 43.393369
LeftArm 114.218132 -63.422029 -71.871557
LeftForeArm 23.101480 -0.000000 19.902638
LeftHand 8.985820 -0.000000 25.196570
LeftHandThumb1 -26.253704 0.000000 33.147579
RightShoulder -17.610371 35.357369 -59.977644
RightArm 55.584489 22.074914 33.333502
RightForeArm -21.904314 0.000000 10.224838
RightHand 14.209621 -0.000000 -30.884431
RightHandThumb1 -24.326973 -0.000000 -32.862282
LeftUpLeg 0.501263 -0.507265 1.871444
LeftLeg -0.670859 -0.000000 0.000000
LeftFoot 0.290416 -1.072363 -18.738261
LeftToeBase -15.926174 -0.000000 0.000000
RightUpLeg -1.078944 -0.575993 6.432263
RightLeg 1.056405 -0.000000 -0.000000
RightFoot 5.631219 -11.049439 -10.156001
RightToeBase -32.608728 -0.000000 0.000000
404
root -28.091588 33.749645 9.047492 40.541726 -84.215804 -34.344515
Spine -12.705667 -8.053726 4.015829
Head 25.842109 -3.533160 -0.518137
LeftShoulder -16.253531 18.186699 43.371810
LeftArm 114.138718 -63.410902 -71.792484
LeftForeArm 23.064803 0.000000 19.858301
LeftHand 8.926532 -0.000000 25.032857
LeftHandThumb1 -26.253704 0.000000 33.147579
RightShoulder -17.549164 35.195056 -59.815665
RightArm 55.638511 22.252657 33.160785
RightForeArm -21.930370 -0.000000 10.138395
RightHand 13.908297 -0.000000 -32.340323
RightHandThumb1 -24.326973 -0.000000 -32.862282
LeftUpLeg 0.704315 -0.671188 1.770357
LeftLeg -1.134961 -0.000000 0.000000
LeftFoot 0.191949 -0.753969 -18.569825
LeftToeBase -15.614793 -0.000000 0.000000
RightUpLeg -1.003875 -0.638723 6.344019
RightLeg 0.896672 -0.000000 -0.000000
RightFoot 5.218579 -10.933213 -9.703817
RightToeBase -32.147088 -0.000000 0.000000
